<svg class="plexico-icon-rating-empty-25" version="1.1" id="rating-empty" xmlns="http://www.w3.org/2000/svg" xmlns:xlink="http://www.w3.org/1999/xlink" x="0px" y="0px" viewBox="0 0 416 448" style="enable-background:new 0 0 416 448;" xml:space="preserve">
<title/>
<g id="icomoon-ignore">
</g>
<path d="M402,167.9l-125.5-18.2L220.3,35.9c-3.5-6.8-7.8-10.2-12.2-10.2s-9,3.5-12.2,10.2l-56.2,113.8L14,167.9&#10;&#9;c-15,2.2-18.5,12.8-7.8,23.5l91,88.5l-21.5,125c-1.8,11,2.2,17.5,10,17.5c2.8,0,6.2-1,10-3l112.2-59l112.2,59c3.8,2,7.2,3,10,3&#10;&#9;c7.8,0,11.8-6.5,10-17.5l-21.5-125l90.8-88.5C420.5,180.6,417,170.1,402,167.9z M296.5,256.9l-12.2,11.8l3,16.5l15,88.8l-79.5-42&#10;&#9;l-14.8-7.8l-14.8,7.8l-79.5,42l15-88.8l3-16.5l-12.2-11.8l-64.2-62.5l105.5-15.5l7.5-15L208,83.4l39.8,80.5l7.5,15l105.5,15.5&#10;&#9;L296.5,256.9z"/>
</svg>