<svg class="plexico-icon-plex-pass-29" id="plex-pass" version="1.1" xmlns="http://www.w3.org/2000/svg" width="826" height="512" viewBox="0 0 826 512">
<title/>
<g id="icomoon-ignore">
</g>
<path fill="#000" d="M812.056 147.589c0.006 0 0.013 0 0.019 0 2.668 0 4.83-2.162 4.83-4.83 0-0.007 0-0.013 0-0.020v-17.781c0-0.006 0-0.013 0-0.019 0-2.668-2.163-4.83-4.83-4.83-0.007 0-0.014 0-0.020 0-23.228-0.028-42.052-18.852-42.080-42.078-0-0.095-0.001-0.205-0.001-0.314 0-4.299 0.591-8.459 1.695-12.406 0.462-1.293 0.462-2.91-0.616-3.987-0.539-1.617-2.155-2.156-3.772-2.156h-709.297c-1.078 0-2.694 1.078-3.772 2.156-0.539 1.078-1.078 2.695-0.539 4.311 1.028 3.623 1.617 7.784 1.617 12.082 0 0.109-0.001 0.219-0.001 0.328-0.028 23.212-18.851 42.036-42.078 42.064-0.008 0-0.015 0-0.023 0-2.668 0-4.83 2.162-4.83 4.83 0 0.007 0 0.013 0 0.020v17.782c0 0.006 0 0.012 0 0.019 0 2.668 2.162 4.83 4.83 4.83 0.007 0 0.014 0 0.021 0 4.76 0 8.621 3.861 8.621 8.622s-3.861 8.622-8.622 8.622c-0.006 0-0.012 0-0.020 0-2.668 0-4.83 2.162-4.83 4.83 0 0.007 0 0.013 0 0.020v21.015c-0.001 0.042-0.002 0.090-0.002 0.139 0 2.883 2.076 5.282 4.816 5.782 4.798 0.006 8.658 3.865 8.658 8.627s-3.861 8.622-8.622 8.622c-0.006 0-0.012 0-0.020 0-2.668 0-4.83 2.162-4.83 4.83 0 0.007 0 0.013 0 0.020v21.113c0 0.006 0 0.012 0 0.019 0 2.668 2.162 4.83 4.83 4.83 0.007 0 0.014 0 0.021 0 4.76 0 8.621 3.861 8.621 8.622s-3.861 8.622-8.622 8.622c-0.006 0-0.012 0-0.020 0-2.668 0-4.83 2.163-4.83 4.83 0 0.007 0 0.014 0 0.021v21.064c0 0.006 0 0.012 0 0.019 0 2.668 2.162 4.83 4.83 4.83 0.007 0 0.014 0 0.021 0 4.76 0 8.621 3.861 8.621 8.622s-3.861 8.622-8.622 8.622c-0.006 0-0.012 0-0.020 0-2.668 0-4.83 2.163-4.83 4.83 0 0.007 0 0.014 0 0.021v21.064c0 0.006 0 0.012 0 0.019 0 2.668 2.162 4.83 4.83 4.83 0.007 0 0.014 0 0.021 0 4.76 0 8.621 3.861 8.621 8.622s-3.861 8.622-8.622 8.622c-0.006 0-0.012 0-0.020 0-2.668 0-4.83 2.163-4.83 4.83 0 0.007 0 0.014 0 0.021v21.064c0 0.006 0 0.012 0 0.019 0 2.668 2.162 4.83 4.83 4.83 0.007 0 0.014 0 0.021 0 23.228 0.028 42.052 18.851 42.080 42.078 0 3.236-0.539 6.469-1.078 9.702 0 1.616 0 3.233 1.078 4.311 0.901 0.995 2.197 1.618 3.639 1.618 0.047 0 0.094-0 0.141-0.002h707.673c1.616 0 3.233-1.077 3.233-2.695 0.791-0.763 1.283-1.832 1.283-3.017 0-0.462-0.075-0.908-0.213-1.324-0.53-3.204-1.069-6.437-1.069-9.67 0.028-23.229 18.851-42.053 42.078-42.080 0.009 0 0.015 0 0.023 0 2.668 0 4.83-2.163 4.83-4.83 0-0.007 0-0.014 0-0.021v-21.015c0-0.006 0-0.012 0-0.019 0-2.668-2.163-4.83-4.83-4.83-0.007 0-0.014 0-0.020 0-4.76 0-8.621-3.861-8.621-8.622s3.861-8.622 8.622-8.622c0.006 0 0.013 0 0.019 0 2.668 0 4.83-2.163 4.83-4.83 0-0.007 0-0.014 0-0.021v-21.015c0-0.006 0-0.012 0-0.019 0-2.668-2.163-4.83-4.83-4.83-0.007 0-0.014 0-0.020 0-4.76 0-8.621-3.861-8.621-8.622s3.861-8.622 8.622-8.622c0.006 0 0.013 0 0.019 0 2.668 0 4.83-2.163 4.83-4.83 0-0.007 0-0.014 0-0.021v-21.015c0-0.006 0-0.012 0-0.019 0-2.668-2.163-4.83-4.83-4.83-0.007 0-0.014 0-0.020 0-4.76 0-8.621-3.861-8.621-8.622s3.861-8.622 8.622-8.622c0.006 0 0.013 0 0.019 0 2.668 0 4.83-2.162 4.83-4.83 0-0.007 0-0.013 0-0.020v-21.015c0-0.006 0-0.012 0-0.019 0-2.668-2.163-4.83-4.83-4.83-0.007 0-0.014 0-0.020 0-4.76 0-8.621-3.861-8.621-8.622s3.861-8.622 8.622-8.622c0.006 0 0.013 0 0.019 0 2.668 0 4.83-2.162 4.83-4.83 0-0.007 0-0.013 0-0.020v-21.015c0-0.006 0-0.012 0-0.019 0-2.668-2.163-4.83-4.83-4.83-0.007 0-0.014 0-0.020 0-0.033 0-0.072 0.001-0.112 0.001-4.699 0-8.509-3.81-8.509-8.509 0-0.040 0-0.080 0.001-0.119-0.001-0.037-0.001-0.089-0.001-0.142 0-4.781 3.849-8.665 8.618-8.72zM807.207 175.072v12.394c-7.816 2.287-13.433 9.374-13.471 17.778 0 8.626 5.389 15.631 13.471 17.787v12.394c-7.816 2.287-13.433 9.374-13.471 17.778 0 8.626 5.389 15.631 13.471 17.787v12.394c-7.816 2.288-13.433 9.374-13.471 17.778 0 8.627 5.389 15.632 13.471 17.787v12.394c-7.816 2.288-13.433 9.374-13.471 17.778 0 8.627 5.389 15.632 13.471 17.787v12.051c-26.452 2.694-46.919 24.844-46.931 51.779 0 1.618 0.539 3.234 0.539 5.389h-695.826c0-1.616 0.539-3.772 0-5.389-0.011-26.935-20.479-49.087-46.709-51.762l-0.221-11.873c7.816-2.288 13.433-9.374 13.472-17.778 0-8.627-5.389-15.632-13.471-17.787v-12.394c7.816-2.288 13.434-9.374 13.471-17.778 0-8.627-5.389-15.632-13.471-17.787v-12.394c7.816-2.288 13.434-9.374 13.471-17.778 0-8.626-5.389-15.631-13.471-17.787v-12.394c7.816-2.287 13.434-9.374 13.471-17.778 0-8.626-5.389-15.631-13.471-17.787v-12.394c7.816-2.287 13.434-9.374 13.471-17.778 0-8.626-5.389-15.631-13.471-17.787v-8.622c26.451-2.694 46.919-24.844 46.93-51.779 0-2.695 0-5.928-0.539-8.623h696.364c-0.539 2.695-0.539 5.388-0.539 8.622 0.011 26.936 20.479 49.086 46.71 51.762l0.221 8.64c-7.816 2.287-13.433 9.374-13.471 17.778 0 8.626 5.389 15.435 13.471 17.591z"/>
<path fill="#000" d="M682.042 116.825h-538.28c-30.225 0-55.013 24.788-55.013 55.014v162.346c0 30.226 24.837 55.014 55.013 55.014h538.329c30.226 0 55.014-24.837 55.014-55.014v-162.346c0-30.177-24.837-55.013-55.063-55.013zM98.987 334.234v-162.934c0-24.788 19.938-44.236 44.775-44.236h189.339v251.896h-189.339c-0.043 0-0.095 0-0.147 0-24.648 0-44.628-19.981-44.628-44.628 0-0.034 0-0.069 0-0.103zM726.817 334.234c0 0.032 0 0.070 0 0.108 0 24.669-19.999 44.667-44.667 44.667-0.038 0-0.076 0-0.114 0h-339.236v-251.945h339.291c0.032 0 0.070 0 0.108 0 24.669 0 44.667 19.999 44.667 44.667 0 0.037 0 0.076 0 0.113v162.39z"/>
<path fill="#000" d="M219.792 161.6h-52.858l52.858 91.167-52.858 91.166h52.858l52.858-91.166z"/>
<path fill="#000" d="M429.607 178.305c-4.85-3.772-11.316-5.388-19.938-5.388h-22.632v71.179h15.089v-25.327h6.466c8.622 0 15.627-1.617 20.477-5.928s7.005-10.238 7.005-17.782v0c0.049-7.006-2.695-12.933-6.466-16.754zM416.674 203.681c-2.156 1.617-5.389 2.695-10.238 2.695h-5.389v-21.554h7.005c4.311 0 7.005 1.077 9.161 2.695 1.683 2.066 2.702 4.731 2.702 7.633 0 0.158-0.003 0.316-0.009 0.472q0 5.636-3.233 8.060z"/>
<path fill="#000" d="M510.535 231.751h-29.148v-58.834h-15.089v71.228h44.236z"/>
<path fill="#000" d="M580.637 231.751h-25.865v-18.37h24.249v-12.394h-24.249v-15.627h25.865v-12.443h-40.954v71.228h40.954z"/>
<path fill="#000" d="M668.032 172.917h-16.166l-15.088 25.915-15.138-25.915h-16.705l22.093 34.536-23.71 36.692h16.166l16.754-26.993 16.705 26.993h17.244l-24.788-35.614z"/>
<path fill="#000" d="M429.607 268.394c-4.85-3.772-11.316-5.389-19.938-5.389h-22.632v71.18h15.089v-25.376h6.466c8.622 0 15.627-1.616 20.477-5.928s7.005-10.238 7.005-17.782v0c0.049-7.544-2.695-12.933-6.466-16.705zM416.674 293.769c-2.156 1.616-5.389 2.695-10.238 2.695h-5.389v-21.555h7.005c4.311 0 7.005 1.077 9.161 2.695 1.683 2.066 2.702 4.731 2.702 7.633 0 0.158-0.003 0.316-0.009 0.473q0 5.635-3.233 8.060z"/>
<path fill="#000" d="M482.465 262.466l-25.376 71.719h16.166l5.389-16.705h25.914l5.389 16.705h16.166l-25.376-71.719h-18.272zM492.214 273.783c0 1.077 0.539 2.695 1.077 4.85q0.808 2.425 8.083 25.914h-18.322c4.85-16.166 8.083-26.454 9.161-30.764z"/>
<path fill="#000" d="M566.626 275.399c1.616-1.616 3.772-2.156 6.466-2.156s4.85 0.539 7.544 1.077c3.595 0.978 6.64 2.082 9.569 3.397l4.442-12.019c-3.772-1.616-7.544-2.695-10.778-3.772-3.772-0.539-7.005-1.077-10.778-1.077-7.544 0-13.471 1.616-17.783 5.389s-6.466 8.622-6.466 15.089c0 3.233 1.077 5.928 2.155 8.622 1.616 2.156 3.233 4.85 5.389 6.466 2.155 2.156 5.389 3.772 9.699 5.928s7.544 3.772 9.161 4.85c1.077 1.077 2.694 2.156 3.233 3.233 0.648 1.080 1.043 2.377 1.077 3.762 0 0.025 0 0.043 0 0.061 0 2.18-1.053 4.115-2.677 5.325-1.634 1.63-4.328 2.168-7.562 2.168-2.694 0-5.928 0-9.161-1.077-3.772-0.539-7.544-2.156-12.394-4.311v14.010c5.389 2.695 12.394 4.311 19.938 4.311 8.083 0 14.549-1.616 19.399-5.389s7.005-8.622 7.005-15.089v0c0-4.311-1.077-8.622-2.694-12.933-2.155-3.233-7.005-6.466-13.471-9.7q-8.083-3.233-9.7-4.85c-1.153-0.62-2.074-1.541-2.677-2.66-0.556-0.573-1.095-2.19-1.095-3.267 0-2.156 0.539-4.311 2.155-5.389z"/>
<path fill="#000" d="M638.933 275.399c1.616-1.616 3.772-2.156 6.466-2.156s4.85 0.539 7.544 1.077c3.595 0.978 6.64 2.082 9.569 3.397l4.442-12.019c-3.772-1.616-7.544-2.695-10.778-3.772-3.772-0.539-7.005-1.077-10.778-1.077-7.544 0-13.471 1.616-17.783 5.389s-6.466 8.622-6.466 15.089c0 3.233 1.077 5.928 2.155 8.622 1.616 2.156 3.233 4.85 5.389 6.466 2.155 2.156 5.389 3.772 9.699 5.928s7.544 3.772 9.161 4.85c1.077 1.077 2.694 2.156 3.233 3.233 0.648 1.080 1.043 2.377 1.077 3.762 0 0.025 0 0.043 0 0.061 0 2.18-1.053 4.115-2.677 5.325-1.634 1.63-4.328 2.168-7.562 2.168-2.694 0-5.928 0-9.161-1.077-3.772-0.539-7.544-2.156-12.394-4.311v14.010c5.389 2.695 12.394 4.311 19.938 4.311 8.083 0 14.549-1.616 19.399-5.389s7.005-8.622 7.005-15.089v0c0-4.311-1.616-8.622-2.694-12.933-2.155-3.233-7.005-6.466-13.471-9.7q-8.083-3.233-9.7-4.85c-1.153-0.62-2.074-1.541-2.677-2.66-0.556-0.573-1.095-2.19-1.095-3.267 0-2.156 0.539-4.311 2.155-5.389z"/>
</svg>