<svg class="plexico-icon-tidal-icon-30" version="1.1" id="tidal-icon-2" xmlns="http://www.w3.org/2000/svg" xmlns:xlink="http://www.w3.org/1999/xlink" x="0px" y="0px" viewBox="0 0 2500 1216" style="enable-background:new 0 0 2500 1216;" xml:space="preserve">
<style type="text/css">
	#icon-tidal-icon-30 .st0{stroke:#000000;stroke-width:9.400000e-02;}
</style>
<path class="st0" d="M1026.9,0h1.4c10.5,12,22.4,22.7,33.5,34.2l76,76v1.4c-36.8,36.6-73.4,73.6-110.2,110.2&#10;&#9;c-37-36.8-73.8-73.8-110.8-110.6c1.9-3.6,5.5-6,8.3-8.9C959,68.1,993.4,34.4,1026.9,0z M1248.8,0h1.4c1,1.5,2.1,2.9,3.4,4.3&#10;&#9;c35.6,35.3,70.7,71,106.6,106.1c-0.9,2.1-2.8,3.4-4.3,5c-35.6,35.4-71,71-106.6,106.5c-37.2-36.6-73.6-74-110.9-110.4&#10;&#9;C1174.5,73.8,1212.5,37.5,1248.8,0z M1470.7,0h1.4c6.9,8.3,15,15.3,22.4,23c27.9,27.9,55.6,55.6,83.4,83.4c1.4,1.5,3.6,2.9,4.1,5.2&#10;&#9;c-37.3,36.3-73.4,74-110.9,110.2l-105.8-105.8c-1.7-1.9-4-3.3-4.8-5.7c18.7-18.2,37-37,55.6-55.4C1434.2,36.6,1452.8,18.7,1470.7,0z&#10;&#9; M1139.9,331.1c36.3-36.3,72.8-72.6,109-109l1.5,0.7c36.5,36.6,72.9,73.3,109.7,109.6c-1.2,2.8-3.8,4.3-5.7,6.5&#10;&#9;c-26.5,26.3-53,53-79.5,79.3c-8.6,8.3-16.9,17.5-25.6,25.3c-12.6-11.4-24.1-24.1-36.3-35.8c-24.8-24.8-49.4-49.5-74.3-74.1&#10;&#9;C1139.2,332.8,1139.6,331.8,1139.9,331.1L1139.9,331.1z M0.5,808.2h330.9c0.2,26.5,0.2,53,0,79.3H212.2v313&#10;&#9;c-0.2,5.2,0.3,10.3-0.7,15.5h-92c0.3-109.6,0.2-218.9,0.2-328.5H0.5V808.2z M607.4,808.2c31,0,61.9,0,92.9,0.2&#10;&#9;c-0.2,135.9,0.3,271.8-0.3,407.6h-92.4c-0.5-36.1-0.2-72.2-0.3-108.4C607.4,1007.9,607.3,908.1,607.4,808.2z M2245,808.2&#10;&#9;c31,0,61.9,0,92.9,0.2v325.8c53.8,0.3,107.8,0.2,161.7,0.2v81.7h-254.4C2244.6,1080.1,2245.2,944.2,2245,808.2z M1371.9,944.9&#10;&#9;c-9.3-32-27.3-61.1-52.5-82.9c-33.2-29.4-76.5-45.4-120.1-51.1c-24.6-3.6-49.5-2.6-74.3-2.8h-109.9c-2.1,0-4.3,0.2-6.4,0.5&#10;&#9;c0.5,134.7,0,269.3,0.3,404c-0.2,0.9-0.3,2.4-0.5,3.3h158.9c14.3-2.6,28.9-2.4,43-5.5c48.2-8.8,94.4-32.7,125.9-70.7&#10;&#9;c23.2-27.5,37.5-62.1,42.1-97.7C1382.8,1009.6,1381.1,976.2,1371.9,944.9L1371.9,944.9z M1267.2,1080.3c-11.5,18.4-28.6,33-48.3,42&#10;&#9;c-17.9,8.3-37.7,12-57.3,12.6c-20.6,0.2-41.3,0-61.9,0.2c-1-22.9-0.2-45.8-0.5-68.6c0-59.7,0-119.2,0.2-178.9h63.8&#10;&#9;c32,0.7,64.5,11.7,87.7,34.4c20.8,20.1,32.5,48.5,34.4,77.2C1287.2,1027.2,1282,1056.2,1267.2,1080.3z M1958.8,1120&#10;&#9;c-38.9-94.4-77.6-189-116.8-283.3c-3.6-9.5-7.4-19.1-11.7-28.2c-32-0.5-64-0.5-96,0c-54.7,131.6-109.4,263.2-164.1,394.6&#10;&#9;c-1.7,4.3-3.8,8.4-4.6,12.9h98.9c9.8-27.2,20.3-54,30.1-81.2c56.1-0.9,112.3-0.2,168.6-0.3c2.9-0.9,3.8,2.2,4.5,4.3&#10;&#9;c9.5,25.8,19.1,51.4,28.4,77.2h102C1985.6,1183.7,1971.9,1152,1958.8,1120z M1720.7,1062.4c-0.5-3.6,1.7-6.7,2.8-10&#10;&#9;c18.7-49,38-98,56.6-147.1c0.3-0.2,1-0.3,1.4-0.3c19.4,51.6,39.2,103,58.8,154.6c0,0.7,0.2,2.1,0.2,2.8&#10;&#9;C1800.6,1062.1,1760.7,1062.1,1720.7,1062.4z"/>
</svg>