<svg class="plexico-icon-roku-22" version="1.1" id="roku-1" fill="white" width="70px" height="50px" xmlns="http://www.w3.org/2000/svg" xmlns:xlink="http://www.w3.org/1999/xlink" x="0px" y="0px" viewBox="0 0 53 17" style="" xml:space="preserve">
<title>roku</title>
<path d="M13,5.8c0-2.9-2.8-5.3-6.3-5.3h-6v15.8h4.2V11h1.2l3.8,5.3h4.8l-4.4-6.1C11.9,9.2,13,7.6,13,5.8z M6.1,8.4H4.8V3.1h1.3&#10;&#9;c1.5,0,2.6,1.2,2.6,2.6C8.7,7.2,7.6,8.4,6.1,8.4z M19.5,3.7c-3.6,0-6.4,2.8-6.4,6.4s2.9,6.4,6.4,6.4c3.6,0,6.5-2.8,6.5-6.4&#10;&#9;C25.9,6.6,23,3.7,19.5,3.7z M19.5,13.6c-1.1,0-2.1-1.5-2.1-3.4s1-3.4,2.1-3.4s2.1,1.5,2.1,3.4C21.6,12,20.6,13.6,19.5,13.6z M48.1,4&#10;&#9;v8c-0.5,0.8-1.1,1.3-2.1,1.3s-1.5-0.6-1.5-2.6V3.9h-8.6l-4.8,4.8V3.9h-4.2v12.4h4.2v-5l5.1,5h5.3l-6.4-6.4l5.2-5.3v7.3&#10;&#9;c0,2.4,1.5,4.7,5.1,4.7c1.7,0,3.3-1,4.2-1.9l1.9,1.7h0.8V3.9C52.3,3.9,48.1,3.9,48.1,4z" style=""/>
</svg>